{
  "accessors": [
    {
      "bufferView": 2,
      "componentType": 5126,
      "count": 11357,
      "max": [
        829243.0,
        597.0983276367188,
        467186.09375
      ],
      "min": [
        -755661.9375,
        -710.5394287109375,
        -336720.375
      ],
      "type": "VEC3"
    },
    {
      "bufferView": 2,
      "byteOffset": 136284,
      "componentType": 5126,
      "count": 11357,
      "max": [
        0.5741947889328003,
        1.0,
        0.8187187910079956
      ],
      "min": [
        -0.5741947889328003,
        -1.0,
        -0.8187188506126404
      ],
      "type": "VEC3"
    },
    {
      "bufferView": 1,
      "componentType": 5126,
      "count": 11357,
      "max": [
        0.9795839786529541,
        0.704993724822998
      ],
      "min": [
        0.014571011066436768,
        0.21551315486431122
      ],
      "type": "VEC2"
    },
    {
      "bufferView": 0,
      "componentType": 5125,
      "count": 32706,
      "type": "SCALAR"
    }
  ],
  "asset": {
    "extras": {
      "author": "Daniel.Riches (https://sketchfab.com/Daniel.Riches)",
      "license": "CC-BY-4.0 (http://creativecommons.org/licenses/by/4.0/)",
      "source": "https://sketchfab.com/3d-models/world-map-b4c6c0cb9b2b4713beb3a6250381d2b0",
      "title": "World Map"
    },
    "generator": "Sketchfab-16.56.0",
    "version": "2.0"
  },
  "bufferViews": [
    {
      "buffer": 0,
      "byteLength": 130824,
      "name": "floatBufferViews",
      "target": 34963
    },
    {
      "buffer": 0,
      "byteLength": 90856,
      "byteOffset": 130824,
      "byteStride": 8,
      "name": "floatBufferViews",
      "target": 34962
    },
    {
      "buffer": 0,
      "byteLength": 272568,
      "byteOffset": 221680,
      "byteStride": 12,
      "name": "floatBufferViews",
      "target": 34962
    }
  ],
  "buffers": [
    {
      "byteLength": 494248,
      "uri": "scene.bin"
    }
  ],
  "materials": [
    {
      "doubleSided": true,
      "name": "WorldMap",
      "pbrMetallicRoughness": {
        "metallicFactor": 0.0,
        "roughnessFactor": 0.7763932022500211
      }
    }
  ],
  "meshes": [
    {
      "name": "WorldMap_WorldMap_0",
      "primitives": [
        {
          "attributes": {
            "NORMAL": 1,
            "POSITION": 0,
            "TEXCOORD_0": 2
          },
          "indices": 3,
          "material": 0,
          "mode": 4
        }
      ]
    }
  ],
  "nodes": [
    {
      "children": [
        1
      ],
      "matrix": [
        1.0,
        0.0,
        0.0,
        0.0,
        0.0,
        2.220446049250313e-16,
        -1.0,
        0.0,
        0.0,
        1.0,
        2.220446049250313e-16,
        0.0,
        0.0,
        0.0,
        0.0,
        1.0
      ],
      "name": "Sketchfab_model"
    },
    {
      "children": [
        2
      ],
      "matrix": [
        0.009999999776482582,
        0.0,
        0.0,
        0.0,
        0.0,
        0.0,
        0.009999999776482582,
        0.0,
        0.0,
        -0.009999999776482582,
        0.0,
        0.0,
        0.0,
        0.0,
        0.0,
        1.0
      ],
      "name": "WorldMap.fbx"
    },
    {
      "children": [
        3
      ],
      "name": "RootNode"
    },
    {
      "children": [
        4
      ],
      "name": "WorldMap"
    },
    {
      "mesh": 0,
      "name": "WorldMap_WorldMap_0"
    }
  ],
  "scene": 0,
  "scenes": [
    {
      "name": "Sketchfab_Scene",
      "nodes": [
        0
      ]
    }
  ]
}
